PathFileType	4	(x/y/z)	S09_PSF_T03
DataRate	CameraRate	NumFrames	NumMarkers	Units	OrigDataRate	OrigDataStartFrame	OrigNumFrames
240	240	11	51	mm	240	404	461
Frame#	Time	Sternum			R.Acromium			L.Acromium			Top.Head			R.ASIS			L.ASIS			R.PSIS			L.PSIS			R.Great.Tro			L.Great.Tro			R.Iliac.Crest			L.Iliac.Crest			V.Sacral			R.Thigh.Upper.Post			R.Thigh.Lower.Ant			R.Thigh.Lower.Post			R.Thigh.Upper.Ant			R.Knee.Lat			R.Knee.Med			R.Shank.Upper.Post			R.Shank.Lower.Ant			R.Shank.Lower.Post			R.Shank.Upper.Ant			R.Ankle.Lat			R.Ankle.Med			R.Heel.Upper			R.Heel.Med			R.Heel.Lat			R.Toe.Lat			R.Toe.Med			R.Toe.Tip			L.Thigh.Upper.Post			L.Thigh.Lower.Ant			L.Thigh.Lower.Post			L.Thigh.Upper.Ant			L.Knee.Lat			L.Knee.Med			L.Shank.Upper.Post			L.Shank.Lower.Ant			L.Shank.Lower.Post			L.Shank.Upper.Ant			L.Ankle.Lat			L.Ankle.Med			L.Heel.Upper			L.Heel.Med			L.Heel.Lat			L.Toe.Lat			L.Toe.Med			L.Toe.Tip			Cervical.Spine			Back			
		X1	Y1	Z1	X2	Y2	Z2	X3	Y3	Z3	X4	Y4	Z4	X5	Y5	Z5	X6	Y6	Z6	X7	Y7	Z7	X8	Y8	Z8	X9	Y9	Z9	X10	Y10	Z10	X11	Y11	Z11	X12	Y12	Z12	X13	Y13	Z13	X14	Y14	Z14	X15	Y15	Z15	X16	Y16	Z16	X17	Y17	Z17	X18	Y18	Z18	X19	Y19	Z19	X20	Y20	Z20	X21	Y21	Z21	X22	Y22	Z22	X23	Y23	Z23	X24	Y24	Z24	X25	Y25	Z25	X26	Y26	Z26	X27	Y27	Z27	X28	Y28	Z28	X29	Y29	Z29	X30	Y30	Z30	X31	Y31	Z31	X32	Y32	Z32	X33	Y33	Z33	X34	Y34	Z34	X35	Y35	Z35	X36	Y36	Z36	X37	Y37	Z37	X38	Y38	Z38	X39	Y39	Z39	X40	Y40	Z40	X41	Y41	Z41	X42	Y42	Z42	X43	Y43	Z43	X44	Y44	Z44	X45	Y45	Z45	X46	Y46	Z46	X47	Y47	Z47	X48	Y48	Z48	X49	Y49	Z49	X50	Y50	Z50	X51	Y51	Z51	

404	1.6792	662.91	1172.9	283.54	527.8	1421.7	430.74	546.81	1426.7	116.9	550.63	1727.8	273.15	608.32	1006.9	381.4	597.24	1010.7	136.87	383.42	1031.4	313.35	388.75	1043.5	224.49	532.14	919.92	456.95	511.57	927.63	69.087	520.16	1084.2	429.34	499.26	1110.8	107.3	366.02	1003.8	262.27	614	680.65	444.73	717.05	611	408.92	640.66	592.43	420.22	684.33	693.02	432.63	719.77	536.95	407	720.06	520.33	280.44	718.79	353.45	418.14	806.45	326.9	418.17	749.65	282.89	411.98	771.16	392.06	424.14	861.11	120.64	409.64	891.15	147.73	326.58	821.81	72.729	348.81	850.82	51.938	322.52	834.72	45.309	384.56	972.78	106.68	459.87	1023.1	141.88	365.06	1049.6	175.22	414.85	394.48	692.27	135.06	451.68	579.59	133.16	388.99	602.99	153.67	457.44	665.91	109.31	417.11	504.57	146.11	446.41	516.79	277.34	337.96	382.67	144.96	380.52	281.97	162.1	321.51	308.28	157.28	396.52	357.71	150.9	298.31	109.58	193.25	314.92	105.26	285.72	223.23	76.848	247.11	234.76	50.916	279.3	221.99	49.625	218.65	393.26	42.213	160.01	434.24	38.492	268.29	484.26	51.643	207.59	460.22	1476.3	281.01	400.91	1213.4	257.03
405	1.6833	668.55	1171.8	283.75	533.39	1420.8	431.07	552.24	1425.7	117.23	556.04	1726.8	273.44	614.24	1005.8	381.47	602.42	1009.7	136.96	389.18	1030.4	314.04	394.25	1042.6	225.19	538.1	918.58	457.07	516.31	926.82	69.239	526.18	1083	429.68	504.5	1109.8	107.69	371.57	1002.9	262.98	618.62	679.02	444.91	721.17	608.76	408.81	644.7	590.65	420.32	688.99	690.98	432.54	723.99	535.55	407.03	723.11	518.42	279.81	726.68	352.33	418.49	814.9	327.37	417.76	758.86	282.28	412.16	778.44	391.93	423.85	873.76	121.76	409.17	902.52	149.49	325.94	834.83	72.899	348.86	864.05	52.711	322.27	848.64	45.723	384.46	986.25	110.07	458.57	1034.9	146.37	363.28	1061.2	180.3	412.8	398.48	692.04	135.57	455.06	579.06	133.28	392.58	602.76	154.08	461.17	665.39	109.52	420.23	504.18	146.29	450.08	516.16	277.4	340.35	382.79	145.13	382.21	281.78	162.18	323.39	308.53	157.43	398.75	357.41	150.99	298.69	109.92	193.37	315.31	105.49	285.81	223.4	77.151	247.2	234.88	51.16	279.4	222.09	49.942	218.74	393.33	42.191	160.04	434.36	38.353	268.25	484.44	51.295	207.54	465.72	1475.2	281.36	406.43	1212.3	257.46
406	1.6875	674.21	1170.8	283.96	539.01	1419.8	431.41	557.67	1424.7	117.56	561.44	1725.8	273.75	620.17	1004.6	381.52	607.62	1008.7	137.02	394.95	1029.4	314.76	399.76	1041.7	225.91	544.12	917.25	457.22	521.08	926	69.402	532.23	1081.9	430.01	509.72	1108.8	108.09	377.13	1001.9	263.73	623.41	677.47	445.13	725.47	606.65	408.71	648.94	588.96	420.44	693.8	689.05	432.48	728.39	534.22	407.06	726.3	516.61	279.22	734.4	351.29	418.81	823.08	327.77	417.31	767.76	281.72	412.3	785.58	391.77	423.55	885.77	122.81	408.62	913.31	151.13	325.22	847.16	73.098	348.79	876.54	53.486	321.89	861.82	46.142	384.22	999.01	113.19	457.17	1046.1	150.53	361.43	1072.2	184.97	410.69	402.56	691.77	136.09	458.55	578.5	133.43	396.28	602.49	154.49	464.99	664.84	109.73	423.46	503.75	146.5	453.83	515.48	277.48	342.84	382.91	145.29	383.97	281.58	162.27	325.35	308.76	157.59	401.08	357.09	151.11	299.08	110.29	193.48	315.7	105.75	285.89	223.58	77.494	247.28	235.01	51.449	279.48	222.2	50.295	218.81	393.41	42.168	160.06	434.48	38.217	268.21	484.62	50.941	207.49	471.22	1474.2	281.73	411.96	1211.2	257.91
407	1.6917	679.89	1169.8	284.17	544.64	1418.8	431.77	563.09	1423.6	117.91	566.84	1724.8	274.06	626.11	1003.4	381.56	612.82	1007.6	137.07	400.74	1028.3	315.51	405.29	1040.7	226.65	550.21	915.97	457.41	525.87	925.14	69.576	538.31	1080.8	430.35	514.94	1107.8	108.5	382.71	1001	264.51	628.36	676	445.36	729.97	604.69	408.6	653.39	587.37	420.58	698.76	687.25	432.44	732.98	532.99	407.08	729.67	514.93	278.67	741.93	350.32	419.07	831	328.09	416.83	776.33	281.19	412.38	792.58	391.58	423.23	897.12	123.74	407.97	923.48	152.63	324.42	858.77	73.288	348.59	888.27	54.223	321.38	874.21	46.524	383.84	1011	115.98	455.69	1056.5	154.31	359.52	1082.6	189.18	408.57	406.73	691.46	136.6	462.14	577.91	133.59	400.07	602.18	154.92	468.91	664.26	109.95	426.79	503.3	146.72	457.68	514.77	277.59	345.44	383.01	145.46	385.82	281.36	162.38	327.39	308.99	157.75	403.49	356.75	151.25	299.5	110.7	193.58	316.11	106.02	285.97	223.78	77.883	247.35	235.14	51.787	279.55	222.32	50.69	218.88	393.49	42.145	160.08	434.61	38.086	268.16	484.81	50.582	207.43	476.74	1473.2	282.12	417.52	1210.1	258.39
408	1.6958	685.59	1168.7	284.39	550.29	1417.8	432.14	568.52	1422.6	118.26	572.23	1723.8	274.38	632.06	1002.3	381.58	618.04	1006.6	137.1	406.53	1027.3	316.29	410.84	1039.7	227.43	556.36	914.73	457.64	530.69	924.27	69.763	544.41	1079.6	430.69	520.16	1106.8	108.92	388.31	999.98	265.33	633.5	674.64	445.62	734.68	602.89	408.48	658.07	585.91	420.72	703.9	685.59	432.4	737.77	531.84	407.06	733.24	513.37	278.16	749.27	349.4	419.28	838.66	328.3	416.32	784.58	280.68	412.39	799.45	391.34	422.9	907.78	124.51	407.24	933.03	153.95	323.57	869.63	73.433	348.25	899.21	54.883	320.75	885.8	46.83	383.33	1022.3	118.4	454.14	1066.4	157.67	357.6	1092.3	192.89	406.44	410.99	691.1	137.12	465.83	577.28	133.78	403.96	601.82	155.36	472.91	663.64	110.19	430.25	502.81	146.98	461.62	514.03	277.73	348.14	383.1	145.63	387.74	281.13	162.51	329.53	309.22	157.92	406	356.38	151.41	299.94	111.13	193.68	316.54	106.32	286.05	223.99	78.322	247.41	235.28	52.181	279.61	222.44	51.132	218.95	393.58	42.122	160.1	434.74	37.96	268.12	485	50.217	207.38	482.28	1472.2	282.52	423.08	1209	258.89
409	1.7	691.31	1167.7	284.61	555.96	1416.9	432.53	573.94	1421.5	118.62	577.62	1722.8	274.71	638.01	1001.1	381.6	623.27	1005.5	137.11	412.34	1026.2	317.09	416.41	1038.7	228.22	562.56	913.55	457.91	535.55	923.37	69.964	550.55	1078.6	431.03	525.36	1105.8	109.35	393.93	998.97	266.17	638.83	673.38	445.89	739.61	601.27	408.35	663	584.57	420.87	709.21	684.08	432.37	742.76	530.77	407	737.06	511.94	277.69	756.41	348.52	419.41	846.04	328.39	415.78	792.47	280.16	412.34	806.18	391.02	422.54	917.73	125.1	406.43	941.95	155.05	322.65	879.72	73.503	347.8	909.36	55.432	319.98	896.56	47.025	382.68	1032.8	120.39	452.55	1075.5	160.56	355.66	1101.4	196.04	404.34	415.33	690.7	137.64	469.62	576.62	133.99	407.95	601.42	155.81	477.01	662.98	110.44	433.81	502.29	147.25	465.66	513.25	277.89	350.95	383.18	145.82	389.74	280.9	162.66	331.75	309.44	158.1	408.61	355.99	151.6	300.4	111.6	193.77	316.99	106.65	286.12	224.21	78.818	247.45	235.43	52.635	279.67	222.58	51.626	219	393.67	42.099	160.12	434.87	37.84	268.07	485.2	49.848	207.32	487.83	1471.1	282.93	428.67	1207.9	259.41
410	1.7042	697.05	1166.7	284.84	561.64	1415.9	432.93	579.36	1420.5	118.99	583	1721.9	275.05	643.98	999.98	381.6	628.52	1004.5	137.11	418.15	1025.1	317.92	421.99	1037.7	229.04	568.82	912.44	458.21	540.45	922.44	70.18	556.7	1077.5	431.38	530.56	1104.7	109.78	399.58	997.94	267.04	644.36	672.24	446.16	744.78	599.84	408.18	668.18	583.36	421.03	714.7	682.75	432.32	747.98	529.8	406.89	741.15	510.64	277.27	763.35	347.68	419.46	853.15	328.34	415.2	800.01	279.62	412.2	812.77	390.63	422.15	926.97	125.47	405.54	950.24	155.9	321.67	889.03	73.472	347.22	918.7	55.838	319.11	906.47	47.081	381.9	1042.5	121.94	450.92	1083.9	162.94	353.72	1109.8	198.61	402.28	419.76	690.25	138.17	473.53	575.93	134.22	412.05	600.98	156.28	481.21	662.3	110.72	437.49	501.74	147.56	469.79	512.44	278.08	353.86	383.25	146.01	391.82	280.66	162.83	334.07	309.67	158.29	411.31	355.59	151.81	300.9	112.11	193.85	317.45	107.01	286.19	224.46	79.375	247.49	235.59	53.155	279.71	222.73	52.178	219.05	393.77	42.077	160.14	435.01	37.728	268.02	485.41	49.475	207.26	493.4	1470.1	283.36	434.27	1206.8	259.95
411	1.7083	702.81	1165.7	285.07	567.35	1415	433.35	584.79	1419.4	119.37	588.37	1720.9	275.39	649.95	998.86	381.61	633.78	1003.4	137.11	423.97	1024.1	318.77	427.6	1036.6	229.87	575.12	911.4	458.55	545.38	921.5	70.412	562.87	1076.5	431.73	535.76	1103.7	110.22	405.24	996.9	267.93	650.08	671.21	446.44	750.18	598.61	407.99	673.61	582.28	421.18	720.37	681.57	432.26	753.4	528.91	406.72	745.52	509.47	276.88	770.08	346.86	419.42	860	328.13	414.58	807.19	279.05	411.98	819.23	390.16	421.74	935.47	125.6	404.59	957.9	156.47	320.65	897.55	73.319	346.53	927.22	56.078	318.13	915.52	46.978	381.01	1051.4	123	449.26	1091.7	164.79	351.81	1117.6	200.56	400.27	424.28	689.76	138.71	477.54	575.22	134.49	416.25	600.5	156.76	485.49	661.59	111.01	441.28	501.16	147.9	474.02	511.6	278.31	356.87	383.33	146.21	393.97	280.41	163.03	336.47	309.89	158.49	414.1	355.17	152.04	301.42	112.66	193.94	317.94	107.4	286.25	224.73	79.999	247.51	235.77	53.746	279.75	222.89	52.793	219.08	393.88	42.056	160.15	435.15	37.625	267.96	485.62	49.099	207.2	498.99	1469.1	283.8	439.89	1205.7	260.52
412	1.7125	708.58	1164.7	285.3	573.07	1414	433.78	590.22	1418.3	119.75	593.74	1719.9	275.75	655.93	997.76	381.61	639.07	1002.3	137.1	429.81	1023	319.63	433.22	1035.5	230.72	581.47	910.44	458.92	550.36	920.53	70.663	569.05	1075.5	432.08	540.95	1102.7	110.66	410.93	995.84	268.85	655.99	670.29	446.71	755.8	597.56	407.76	679.29	581.33	421.33	726.22	680.57	432.17	759.05	528.1	406.5	750.21	508.43	276.52	776.6	346.06	419.28	866.58	327.76	413.93	814.01	278.44	411.67	825.56	389.58	421.29	943.26	125.48	403.58	964.93	156.75	319.58	905.3	73.031	345.74	934.94	56.132	317.06	923.72	46.701	380.01	1059.6	123.56	447.59	1098.8	166.08	349.93	1124.8	201.88	398.32	428.88	689.24	139.26	481.66	574.48	134.78	420.55	599.99	157.27	489.87	660.84	111.32	445.19	500.55	148.26	478.34	510.74	278.56	359.99	383.4	146.43	396.21	280.16	163.24	338.96	310.13	158.71	416.99	354.75	152.3	301.98	113.26	194.01	318.46	107.83	286.31	225.02	80.696	247.52	235.95	54.413	279.78	223.06	53.477	219.12	393.99	42.037	160.16	435.29	37.532	267.91	485.84	48.722	207.14	504.6	1468.1	284.25	445.52	1204.6	261.1
413	1.7167	714.36	1163.7	285.53	578.81	1413.1	434.23	595.65	1417.3	120.13	599.1	1719	276.11	661.93	996.69	381.63	644.39	1001.2	137.1	435.65	1021.9	320.5	438.87	1034.4	231.57	587.85	909.56	459.32	555.39	919.54	70.933	575.24	1074.5	432.44	546.15	1101.6	111.11	416.65	994.77	269.77	662.09	669.49	446.97	761.66	596.7	407.49	685.22	580.51	421.47	732.24	679.72	432.06	764.9	527.36	406.21	755.21	507.52	276.19	782.92	345.27	419.05	872.91	327.21	413.24	820.48	277.76	411.26	831.77	388.91	420.82	950.34	125.09	402.51	971.36	156.71	318.47	912.27	72.602	344.86	941.85	55.989	315.93	931.07	46.246	378.93	1067	123.63	445.93	1105.3	166.79	348.1	1131.4	202.56	396.44	433.56	688.68	139.82	485.89	573.72	135.09	424.95	599.44	157.79	494.35	660.08	111.66	449.22	499.91	148.66	482.76	509.85	278.85	363.22	383.48	146.67	398.52	279.92	163.47	341.54	310.37	158.94	419.98	354.31	152.58	302.58	113.9	194.09	319.01	108.3	286.37	225.34	81.47	247.52	236.15	55.162	279.81	223.26	54.238	219.14	394.11	42.021	160.17	435.45	37.453	267.85	486.07	48.345	207.07	510.23	1467.1	284.72	451.17	1203.6	261.71
414	1.7208	720.16	1162.7	285.78	584.56	1412.2	434.69	601.1	1416.2	120.53	604.46	1718.1	276.47	667.95	995.66	381.65	649.74	1000.1	137.1	441.5	1020.9	321.38	444.55	1033.3	232.43	594.26	908.77	459.75	560.47	918.54	71.224	581.44	1073.6	432.8	551.35	1100.6	111.56	422.39	993.69	270.71	668.36	668.79	447.21	767.72	596.01	407.19	691.39	579.81	421.59	738.42	679.03	431.92	770.95	526.69	405.86	760.54	506.74	275.89	789.04	344.48	418.71	879	326.48	412.52	826.61	277.03	410.77	837.87	388.14	420.31	956.72	124.44	401.4	977.19	156.37	317.33	918.48	72.032	343.91	947.99	55.645	314.74	937.58	45.617	377.79	1073.6	123.19	444.27	1111.3	166.91	346.3	1137.4	202.59	394.62	438.34	688.08	140.4	490.23	572.94	135.44	429.46	598.85	158.34	498.92	659.29	112.02	453.35	499.25	149.08	487.28	508.94	279.18	366.54	383.56	146.92	400.9	279.69	163.72	344.2	310.63	159.2	423.05	353.86	152.89	303.21	114.6	194.16	319.6	108.82	286.43	225.69	82.329	247.52	236.37	55.998	279.84	223.47	55.081	219.16	394.24	42.008	160.18	435.61	37.389	267.79	486.31	47.969	207	515.88	1466.1	285.19	456.84	1202.5	262.33
